solid stl file generated from AC3D
 facet normal 0.000000 0.000000 -1.000000
  outer loop
   vertex 0.035000 0.005000 0.045000
   vertex 0.001500 0.060000 0.045000
   vertex 0.035000 0.060000 0.045000
  endloop
 endfacet
 facet normal 0.000000 0.000000 -1.000000
  outer loop
   vertex -0.035000 0.005000 0.045000
   vertex 0.001500 0.060000 0.045000
   vertex 0.035000 0.005000 0.045000
  endloop
 endfacet
 facet normal 0.000000 0.000000 -1.000000
  outer loop
   vertex 0.001500 0.060000 0.045000
   vertex -0.035000 0.005000 0.045000
   vertex -0.035000 0.060000 0.045000
  endloop
 endfacet
 facet normal 0.000000 0.000000 1.000000
  outer loop
   vertex -0.001500 0.060000 -0.045000
   vertex 0.035000 0.005000 -0.045000
   vertex 0.035000 0.060000 -0.045000
  endloop
 endfacet
 facet normal 0.000000 0.000000 1.000000
  outer loop
   vertex -0.035000 0.060000 -0.045000
   vertex 0.035000 0.005000 -0.045000
   vertex -0.001500 0.060000 -0.045000
  endloop
 endfacet
 facet normal 0.000000 0.000000 1.000000
  outer loop
   vertex 0.035000 0.005000 -0.045000
   vertex -0.035000 0.060000 -0.045000
   vertex -0.035000 0.005000 -0.045000
  endloop
 endfacet
 facet normal 1.000000 0.000000 0.000000
  outer loop
   vertex -0.035000 0.060000 0.045000
   vertex -0.035000 0.060000 0.043667
   vertex -0.035000 0.060000 0.043750
  endloop
 endfacet
 facet normal 1.000000 0.000000 0.000000
  outer loop
   vertex -0.035000 0.060000 0.045000
   vertex -0.035000 0.060000 0.037662
   vertex -0.035000 0.060000 0.043667
  endloop
 endfacet
 facet normal 1.000000 0.000000 0.000000
  outer loop
   vertex -0.035000 0.060000 0.045000
   vertex -0.035000 0.060000 -0.001929
   vertex -0.035000 0.060000 0.037662
  endloop
 endfacet
 facet normal 1.000000 0.000000 0.000000
  outer loop
   vertex -0.035000 0.060000 0.045000
   vertex -0.035000 0.060000 -0.045000
   vertex -0.035000 0.060000 -0.001929
  endloop
 endfacet
 facet normal 1.000000 0.000000 0.000000
  outer loop
   vertex -0.035000 0.005000 0.045000
   vertex -0.035000 0.060000 -0.045000
   vertex -0.035000 0.060000 0.045000
  endloop
 endfacet
 facet normal 1.000000 0.000000 0.000000
  outer loop
   vertex -0.035000 0.060000 -0.045000
   vertex -0.035000 0.005000 0.045000
   vertex -0.035000 0.005000 -0.045000
  endloop
 endfacet
 facet normal -1.000000 0.000000 0.000000
  outer loop
   vertex 0.035000 0.060000 -0.045000
   vertex 0.035000 0.060000 -0.043667
   vertex 0.035000 0.060000 -0.043750
  endloop
 endfacet
 facet normal -1.000000 0.000000 0.000000
  outer loop
   vertex 0.035000 0.060000 -0.045000
   vertex 0.035000 0.060000 -0.037662
   vertex 0.035000 0.060000 -0.043667
  endloop
 endfacet
 facet normal -1.000000 0.000000 0.000000
  outer loop
   vertex 0.035000 0.060000 -0.045000
   vertex 0.035000 0.060000 0.001929
   vertex 0.035000 0.060000 -0.037662
  endloop
 endfacet
 facet normal -1.000000 0.000000 0.000000
  outer loop
   vertex 0.035000 0.060000 -0.045000
   vertex 0.035000 0.060000 0.045000
   vertex 0.035000 0.060000 0.001929
  endloop
 endfacet
 facet normal -1.000000 0.000000 0.000000
  outer loop
   vertex 0.035000 0.005000 -0.045000
   vertex 0.035000 0.060000 0.045000
   vertex 0.035000 0.060000 -0.045000
  endloop
 endfacet
 facet normal -1.000000 0.000000 0.000000
  outer loop
   vertex 0.035000 0.060000 0.045000
   vertex 0.035000 0.005000 -0.045000
   vertex 0.035000 0.005000 0.045000
  endloop
 endfacet
 facet normal 1.000000 0.000000 0.000000
  outer loop
   vertex 0.040000 0.000000 0.050000
   vertex 0.040000 0.060000 -0.050000
   vertex 0.040000 0.060000 0.050000
  endloop
 endfacet
 facet normal 1.000000 0.000000 0.000000
  outer loop
   vertex 0.040000 0.060000 -0.050000
   vertex 0.040000 0.000000 0.050000
   vertex 0.040000 0.000000 -0.050000
  endloop
 endfacet
 facet normal -1.000000 0.000000 0.000000
  outer loop
   vertex -0.040000 0.000000 -0.050000
   vertex -0.040000 0.060000 0.050000
   vertex -0.040000 0.060000 -0.050000
  endloop
 endfacet
 facet normal -1.000000 0.000000 0.000000
  outer loop
   vertex -0.040000 0.060000 0.050000
   vertex -0.040000 0.000000 -0.050000
   vertex -0.040000 0.000000 0.050000
  endloop
 endfacet
 facet normal 0.000000 0.000000 -1.000000
  outer loop
   vertex -0.040000 0.000000 -0.050000
   vertex 0.040000 0.060000 -0.050000
   vertex 0.040000 0.000000 -0.050000
  endloop
 endfacet
 facet normal 0.000000 0.000000 -1.000000
  outer loop
   vertex 0.040000 0.060000 -0.050000
   vertex -0.040000 0.000000 -0.050000
   vertex -0.040000 0.060000 -0.050000
  endloop
 endfacet
 facet normal 0.000000 0.000000 1.000000
  outer loop
   vertex -0.040000 0.060000 0.050000
   vertex 0.040000 0.000000 0.050000
   vertex 0.040000 0.060000 0.050000
  endloop
 endfacet
 facet normal 0.000000 0.000000 1.000000
  outer loop
   vertex 0.040000 0.000000 0.050000
   vertex -0.040000 0.060000 0.050000
   vertex -0.040000 0.000000 0.050000
  endloop
 endfacet
 facet normal 0.000000 -1.000000 0.000000
  outer loop
   vertex -0.040000 0.000000 -0.050000
   vertex 0.040000 0.000000 0.050000
   vertex -0.040000 0.000000 0.050000
  endloop
 endfacet
 facet normal 0.000000 -1.000000 0.000000
  outer loop
   vertex 0.040000 0.000000 0.050000
   vertex -0.040000 0.000000 -0.050000
   vertex 0.040000 0.000000 -0.050000
  endloop
 endfacet
 facet normal 0.000000 1.000000 0.000000
  outer loop
   vertex 0.040000 0.060000 0.050000
   vertex 0.040000 0.060000 -0.050000
   vertex 0.035000 0.060000 0.045000
  endloop
 endfacet
 facet normal 0.000000 1.000000 0.000000
  outer loop
   vertex 0.040000 0.060000 0.050000
   vertex 0.035000 0.060000 0.045000
   vertex 0.001500 0.060000 0.045000
  endloop
 endfacet
 facet normal 0.000000 1.000000 0.000000
  outer loop
   vertex 0.040000 0.060000 0.050000
   vertex 0.001500 0.060000 0.045000
   vertex -0.040000 0.060000 0.050000
  endloop
 endfacet
 facet normal 0.000000 1.000000 0.000000
  outer loop
   vertex -0.040000 0.060000 -0.050000
   vertex -0.001500 0.060000 -0.045000
   vertex 0.035000 0.060000 -0.045000
  endloop
 endfacet
 facet normal 0.000000 1.000000 0.000000
  outer loop
   vertex -0.040000 0.060000 -0.050000
   vertex 0.035000 0.060000 -0.045000
   vertex 0.040000 0.060000 -0.050000
  endloop
 endfacet
 facet normal 0.000000 1.000000 0.000000
  outer loop
   vertex 0.035000 0.060000 0.045000
   vertex 0.040000 0.060000 -0.050000
   vertex 0.035000 0.060000 0.001929
  endloop
 endfacet
 facet normal 0.000000 1.000000 0.000000
  outer loop
   vertex -0.040000 0.060000 0.050000
   vertex 0.001500 0.060000 0.045000
   vertex -0.035000 0.060000 0.045000
  endloop
 endfacet
 facet normal 0.000000 1.000000 0.000000
  outer loop
   vertex -0.001500 0.060000 -0.045000
   vertex -0.040000 0.060000 -0.050000
   vertex -0.035000 0.060000 -0.045000
  endloop
 endfacet
 facet normal 0.000000 1.000000 0.000000
  outer loop
   vertex -0.040000 0.060000 -0.050000
   vertex -0.040000 0.060000 0.050000
   vertex -0.035000 0.060000 -0.045000
  endloop
 endfacet
 facet normal 0.000000 1.000000 0.000000
  outer loop
   vertex -0.035000 0.060000 0.037662
   vertex -0.040000 0.060000 0.050000
   vertex -0.035000 0.060000 0.043667
  endloop
 endfacet
 facet normal 0.000000 1.000000 0.000000
  outer loop
   vertex -0.035000 0.060000 0.043667
   vertex -0.040000 0.060000 0.050000
   vertex -0.035000 0.060000 0.043750
  endloop
 endfacet
 facet normal 0.000000 1.000000 0.000000
  outer loop
   vertex 0.040000 0.060000 -0.050000
   vertex 0.035000 0.060000 -0.037662
   vertex 0.035000 0.060000 0.001929
  endloop
 endfacet
 facet normal 0.000000 1.000000 0.000000
  outer loop
   vertex 0.035000 0.060000 -0.037662
   vertex 0.040000 0.060000 -0.050000
   vertex 0.035000 0.060000 -0.043667
  endloop
 endfacet
 facet normal 0.000000 1.000000 0.000000
  outer loop
   vertex -0.035000 0.060000 0.043750
   vertex -0.040000 0.060000 0.050000
   vertex -0.035000 0.060000 0.045000
  endloop
 endfacet
 facet normal 0.000000 1.000000 0.000000
  outer loop
   vertex -0.035000 0.060000 -0.045000
   vertex -0.040000 0.060000 0.050000
   vertex -0.035000 0.060000 -0.001929
  endloop
 endfacet
 facet normal 0.000000 1.000000 0.000000
  outer loop
   vertex 0.035000 0.060000 -0.043750
   vertex 0.040000 0.060000 -0.050000
   vertex 0.035000 0.060000 -0.045000
  endloop
 endfacet
 facet normal 0.000000 1.000000 0.000000
  outer loop
   vertex 0.035000 0.060000 -0.043667
   vertex 0.040000 0.060000 -0.050000
   vertex 0.035000 0.060000 -0.043750
  endloop
 endfacet
 facet normal 0.000000 1.000000 0.000000
  outer loop
   vertex -0.040000 0.060000 0.050000
   vertex -0.035000 0.060000 0.037662
   vertex -0.035000 0.060000 -0.001929
  endloop
 endfacet
 facet normal 0.000000 1.000000 0.000000
  outer loop
   vertex 0.035000 0.005000 -0.045000
   vertex -0.035000 0.005000 0.045000
   vertex 0.035000 0.005000 0.045000
  endloop
 endfacet
 facet normal 0.000000 1.000000 0.000000
  outer loop
   vertex -0.035000 0.005000 0.045000
   vertex 0.035000 0.005000 -0.045000
   vertex -0.035000 0.005000 -0.045000
  endloop
 endfacet
endsolid
